<mxfile host="app.diagrams.net" modified="2024-06-26T08:55:11.144Z" agent="Mozilla/5.0 (Windows NT 10.0; Win64; x64) AppleWebKit/537.36 (KHTML, like Gecko) Chrome/126.0.0.0 Safari/537.36" etag="6y31KH27XNhAsO3YCfM9" version="24.6.3" type="github">
  <diagram name="Page-1" id="fLih3hWBr7BtkFbt2Pia">
    <mxGraphModel dx="2074" dy="1098" grid="1" gridSize="10" guides="1" tooltips="1" connect="1" arrows="1" fold="1" page="1" pageScale="1" pageWidth="827" pageHeight="1169" math="0" shadow="0">
      <root>
        <mxCell id="0" />
        <mxCell id="1" parent="0" />
        <mxCell id="mQ9w4U94Cl6M7EUivwOg-1" value="&lt;font style=&quot;font-size: 20px;&quot;&gt;客户端&lt;/font&gt;" style="rounded=0;whiteSpace=wrap;html=1;" vertex="1" parent="1">
          <mxGeometry x="60" y="260" width="160" height="60" as="geometry" />
        </mxCell>
        <mxCell id="mQ9w4U94Cl6M7EUivwOg-2" value="&lt;font style=&quot;font-size: 18px;&quot;&gt;服务端&lt;/font&gt;" style="rounded=0;whiteSpace=wrap;html=1;" vertex="1" parent="1">
          <mxGeometry x="500" y="260" width="180" height="60" as="geometry" />
        </mxCell>
        <mxCell id="mQ9w4U94Cl6M7EUivwOg-3" value="" style="endArrow=none;html=1;rounded=0;entryX=0.5;entryY=1;entryDx=0;entryDy=0;" edge="1" parent="1" target="mQ9w4U94Cl6M7EUivwOg-1">
          <mxGeometry width="50" height="50" relative="1" as="geometry">
            <mxPoint x="140" y="1000" as="sourcePoint" />
            <mxPoint x="140" y="330" as="targetPoint" />
          </mxGeometry>
        </mxCell>
        <mxCell id="mQ9w4U94Cl6M7EUivwOg-4" value="" style="endArrow=none;html=1;rounded=0;entryX=0.489;entryY=1.117;entryDx=0;entryDy=0;entryPerimeter=0;" edge="1" parent="1" target="mQ9w4U94Cl6M7EUivwOg-2">
          <mxGeometry width="50" height="50" relative="1" as="geometry">
            <mxPoint x="588" y="1000" as="sourcePoint" />
            <mxPoint x="150" y="330" as="targetPoint" />
          </mxGeometry>
        </mxCell>
        <mxCell id="mQ9w4U94Cl6M7EUivwOg-5" value="" style="endArrow=classic;html=1;rounded=0;" edge="1" parent="1">
          <mxGeometry width="50" height="50" relative="1" as="geometry">
            <mxPoint x="140" y="400" as="sourcePoint" />
            <mxPoint x="590" y="400" as="targetPoint" />
          </mxGeometry>
        </mxCell>
        <mxCell id="mQ9w4U94Cl6M7EUivwOg-13" value="&lt;font style=&quot;font-size: 18px;&quot;&gt;登录:发送username&amp;amp;password&lt;/font&gt;" style="edgeLabel;html=1;align=center;verticalAlign=middle;resizable=0;points=[];" vertex="1" connectable="0" parent="mQ9w4U94Cl6M7EUivwOg-5">
          <mxGeometry x="0.0133" relative="1" as="geometry">
            <mxPoint as="offset" />
          </mxGeometry>
        </mxCell>
        <mxCell id="mQ9w4U94Cl6M7EUivwOg-6" value="" style="endArrow=classic;html=1;rounded=0;" edge="1" parent="1">
          <mxGeometry width="50" height="50" relative="1" as="geometry">
            <mxPoint x="590" y="480" as="sourcePoint" />
            <mxPoint x="140" y="480" as="targetPoint" />
          </mxGeometry>
        </mxCell>
        <mxCell id="mQ9w4U94Cl6M7EUivwOg-14" value="&lt;font style=&quot;font-size: 18px;&quot;&gt;Access Token:10 分钟过期&lt;/font&gt;&lt;div style=&quot;font-size: 18px;&quot;&gt;&lt;font style=&quot;font-size: 18px;&quot;&gt;Refresh Token:30 天过期&lt;/font&gt;&lt;/div&gt;" style="edgeLabel;html=1;align=center;verticalAlign=middle;resizable=0;points=[];" vertex="1" connectable="0" parent="mQ9w4U94Cl6M7EUivwOg-6">
          <mxGeometry x="-0.0044" y="-2" relative="1" as="geometry">
            <mxPoint as="offset" />
          </mxGeometry>
        </mxCell>
        <mxCell id="mQ9w4U94Cl6M7EUivwOg-7" value="" style="endArrow=classic;html=1;rounded=0;" edge="1" parent="1">
          <mxGeometry width="50" height="50" relative="1" as="geometry">
            <mxPoint x="140" y="560" as="sourcePoint" />
            <mxPoint x="590" y="560" as="targetPoint" />
          </mxGeometry>
        </mxCell>
        <mxCell id="mQ9w4U94Cl6M7EUivwOg-15" value="&lt;font style=&quot;font-size: 18px;&quot;&gt;访问需要登录的接口，携带 Access Token&lt;/font&gt;" style="edgeLabel;html=1;align=center;verticalAlign=middle;resizable=0;points=[];" vertex="1" connectable="0" parent="mQ9w4U94Cl6M7EUivwOg-7">
          <mxGeometry y="1" relative="1" as="geometry">
            <mxPoint as="offset" />
          </mxGeometry>
        </mxCell>
        <mxCell id="mQ9w4U94Cl6M7EUivwOg-8" value="" style="endArrow=classic;html=1;rounded=0;" edge="1" parent="1">
          <mxGeometry width="50" height="50" relative="1" as="geometry">
            <mxPoint x="590" y="640" as="sourcePoint" />
            <mxPoint x="140" y="640" as="targetPoint" />
          </mxGeometry>
        </mxCell>
        <mxCell id="mQ9w4U94Cl6M7EUivwOg-18" value="&lt;font style=&quot;font-size: 18px;&quot;&gt;返回需要的信息&lt;/font&gt;" style="edgeLabel;html=1;align=center;verticalAlign=middle;resizable=0;points=[];" vertex="1" connectable="0" parent="mQ9w4U94Cl6M7EUivwOg-8">
          <mxGeometry x="0.0089" y="-1" relative="1" as="geometry">
            <mxPoint as="offset" />
          </mxGeometry>
        </mxCell>
        <mxCell id="mQ9w4U94Cl6M7EUivwOg-9" value="" style="endArrow=classic;html=1;rounded=0;" edge="1" parent="1">
          <mxGeometry width="50" height="50" relative="1" as="geometry">
            <mxPoint x="140" y="720" as="sourcePoint" />
            <mxPoint x="590" y="720" as="targetPoint" />
          </mxGeometry>
        </mxCell>
        <mxCell id="mQ9w4U94Cl6M7EUivwOg-19" value="&lt;font style=&quot;font-size: 18px;&quot;&gt;Access Token 过期访问刷新接口，&lt;/font&gt;&lt;div&gt;&lt;font style=&quot;font-size: 18px;&quot;&gt;携带 Refresh Token&lt;/font&gt;&lt;/div&gt;" style="edgeLabel;html=1;align=center;verticalAlign=middle;resizable=0;points=[];" vertex="1" connectable="0" parent="mQ9w4U94Cl6M7EUivwOg-9">
          <mxGeometry x="-0.0089" relative="1" as="geometry">
            <mxPoint as="offset" />
          </mxGeometry>
        </mxCell>
        <mxCell id="mQ9w4U94Cl6M7EUivwOg-10" value="" style="endArrow=classic;html=1;rounded=0;" edge="1" parent="1">
          <mxGeometry width="50" height="50" relative="1" as="geometry">
            <mxPoint x="140" y="880" as="sourcePoint" />
            <mxPoint x="590" y="880" as="targetPoint" />
          </mxGeometry>
        </mxCell>
        <mxCell id="mQ9w4U94Cl6M7EUivwOg-21" value="&lt;font style=&quot;font-size: 18px;&quot;&gt;访问需要登录的接口，&lt;/font&gt;&lt;div&gt;&lt;font style=&quot;font-size: 18px;&quot;&gt;携带新的 Access Token&lt;/font&gt;&lt;/div&gt;" style="edgeLabel;html=1;align=center;verticalAlign=middle;resizable=0;points=[];" vertex="1" connectable="0" parent="mQ9w4U94Cl6M7EUivwOg-10">
          <mxGeometry y="3" relative="1" as="geometry">
            <mxPoint as="offset" />
          </mxGeometry>
        </mxCell>
        <mxCell id="mQ9w4U94Cl6M7EUivwOg-11" value="" style="endArrow=classic;html=1;rounded=0;" edge="1" parent="1">
          <mxGeometry width="50" height="50" relative="1" as="geometry">
            <mxPoint x="590" y="800" as="sourcePoint" />
            <mxPoint x="140" y="800" as="targetPoint" />
          </mxGeometry>
        </mxCell>
        <mxCell id="mQ9w4U94Cl6M7EUivwOg-20" value="&lt;font style=&quot;font-size: 18px;&quot;&gt;返回新的 Access Toke&lt;/font&gt;n" style="edgeLabel;html=1;align=center;verticalAlign=middle;resizable=0;points=[];" vertex="1" connectable="0" parent="mQ9w4U94Cl6M7EUivwOg-11">
          <mxGeometry x="-0.0044" y="3" relative="1" as="geometry">
            <mxPoint as="offset" />
          </mxGeometry>
        </mxCell>
        <mxCell id="mQ9w4U94Cl6M7EUivwOg-12" value="" style="endArrow=classic;html=1;rounded=0;" edge="1" parent="1">
          <mxGeometry width="50" height="50" relative="1" as="geometry">
            <mxPoint x="590" y="960" as="sourcePoint" />
            <mxPoint x="140" y="960" as="targetPoint" />
          </mxGeometry>
        </mxCell>
        <mxCell id="mQ9w4U94Cl6M7EUivwOg-22" value="&lt;font style=&quot;font-size: 18px;&quot;&gt;返回需要的信息&lt;/font&gt;" style="edgeLabel;html=1;align=center;verticalAlign=middle;resizable=0;points=[];" vertex="1" connectable="0" parent="mQ9w4U94Cl6M7EUivwOg-12">
          <mxGeometry x="0.0044" y="2" relative="1" as="geometry">
            <mxPoint as="offset" />
          </mxGeometry>
        </mxCell>
      </root>
    </mxGraphModel>
  </diagram>
</mxfile>
